<?xml version="1.0" standalone="no"?>
<!DOCTYPE svg PUBLIC "-//W3C//DTD SVG 20010904//EN"
 "http://www.w3.org/TR/2001/REC-SVG-20010904/DTD/svg10.dtd">
<svg version="1.0" xmlns="http://www.w3.org/2000/svg"
 width="185.000000pt" height="84.000000pt" viewBox="0 0 185.000000 84.000000"
 preserveAspectRatio="xMidYMid meet">
<metadata>
Created by potrace 1.10, written by Peter Selinger 2001-2011
</metadata>
<g transform="translate(0.000000,84.000000) scale(0.050000,-0.050000)"
fill="#191fc7" stroke="none">
<path d="M1741 1366 c-49 -25 -110 -46 -136 -46 -41 0 -44 -5 -23 -43 37 -70
-60 -441 -162 -622 -11 -19 -20 -48 -20 -65 0 -83 -40 -3 -130 258 l-98 289
49 41 49 41 -160 0 -160 0 48 -40 c91 -76 290 -680 238 -724 -39 -34 -35 -35
112 -35 194 0 199 -36 7 -45 l-145 -7 179 -4 178 -4 -54 57 -55 58 125 327
c76 197 161 380 213 458 59 88 71 114 37 83 -73 -69 -173 -272 -293 -597 -58
-157 -113 -280 -122 -275 -9 6 9 71 40 144 31 74 98 244 149 377 61 157 119
271 166 326 87 101 83 107 -32 48z"/>
<path d="M480 1203 c-124 -66 -188 -182 -197 -355 -11 -228 24 -302 226 -464
61 -50 306 31 351 116 31 58 35 184 5 194 -16 6 -25 -10 -25 -43 0 -181 -183
-273 -317 -160 -152 127 -151 551 1 658 50 35 147 41 166 11 7 -11 -1 -14 -19
-8 -56 22 -132 -12 -172 -78 -68 -112 -47 -489 31 -554 22 -18 21 -9 -5 43
-43 83 -58 354 -27 460 44 146 222 166 282 31 l36 -79 46 97 c25 54 49 104 53
111 4 8 -10 9 -31 4 -22 -6 -81 4 -132 21 -122 42 -187 40 -272 -5z"/>
<path d="M2137 1174 c56 -60 66 -572 12 -675 -69 -135 -209 -47 -209 132 l0
111 -92 -65 c-50 -36 -81 -69 -70 -73 12 -4 36 -37 53 -74 57 -120 238 -166
381 -98 97 46 97 46 91 385 -6 295 -5 309 39 355 l45 48 -147 0 -147 0 44 -46z"/>
<path d="M2518 1172 c43 -46 45 -60 38 -352 l-6 -304 -56 -48 -56 -48 116 0
117 0 -7 145 c-3 80 -10 154 -15 165 -4 11 -6 -45 -3 -125 4 -144 -10 -187
-33 -100 -21 78 -15 548 7 515 11 -16 20 -66 20 -110 0 -46 7 -70 16 -56 10
15 46 -67 92 -206 46 -141 84 -227 99 -222 19 6 94 188 225 545 17 48 22 7 25
-215 4 -263 2 -274 -41 -305 -43 -29 -37 -31 108 -31 206 0 223 -36 22 -45
l-156 -7 177 -4 177 -4 -52 62 c-68 80 -81 652 -17 724 34 39 34 39 -10 16
-44 -23 -45 -31 -45 -364 0 -222 -7 -336 -20 -328 -45 28 -25 653 23 704 l44
46 -158 0 -158 0 42 -41 41 -42 -80 -218 c-43 -120 -86 -214 -95 -209 -8 6
-11 -8 -5 -30 37 -139 -38 1 -109 204 l-84 244 43 46 43 46 -157 0 -157 0 45
-48z"/>
<path d="M1240 1150 c-23 -28 109 -467 133 -443 5 4 -23 96 -62 204 -65 183
-68 199 -37 233 17 20 23 36 12 36 -12 0 -32 -13 -46 -30z"/>
<path d="M2341 1141 c-29 -53 -26 -473 3 -554 45 -124 -140 -246 -333 -220
-56 8 -69 6 -41 -6 178 -79 448 77 393 228 -37 104 -30 510 10 554 19 21 23
37 11 37 -13 0 -32 -17 -43 -39z"/>
<path d="M890 1060 c-29 -57 -49 -108 -44 -113 5 -4 32 39 60 97 29 57 49 108
44 112 -4 5 -31 -39 -60 -96z"/>
<path d="M1981 690 c-12 -98 -1 -158 34 -190 29 -27 30 -27 10 1 -12 16 -26
79 -30 140 -5 68 -10 86 -14 49z"/>
<path d="M2949 542 c-33 -95 -68 -164 -87 -169 -23 -6 -21 -9 8 -10 37 -2 168
305 142 331 -4 4 -32 -64 -63 -152z"/>
<path d="M923 640 c-16 -163 -96 -251 -259 -281 l-94 -17 97 7 c153 11 291
153 267 276 -5 25 -10 32 -11 15z"/>
<path d="M2570 380 l-160 -13 176 -3 c113 -3 172 3 164 16 -7 11 -14 18 -16
16 -2 -2 -76 -9 -164 -16z"/>
</g>
</svg>
